<mxfile host="app.diagrams.net" agent="Mozilla/5.0 (Windows NT 10.0; Win64; x64) AppleWebKit/537.36 (KHTML, like Gecko) Chrome/131.0.0.0 Safari/537.36 Edg/131.0.0.0" version="25.0.3">
  <diagram id="C5RBs43oDa-KdzZeNtuy" name="Page-1">
    <mxGraphModel dx="1367" dy="944" grid="1" gridSize="10" guides="1" tooltips="1" connect="1" arrows="1" fold="1" page="1" pageScale="1" pageWidth="1169" pageHeight="827" math="1" shadow="0">
      <root>
        <mxCell id="WIyWlLk6GJQsqaUBKTNV-0" />
        <mxCell id="WIyWlLk6GJQsqaUBKTNV-1" parent="WIyWlLk6GJQsqaUBKTNV-0" />
        <mxCell id="fILXi0ZJVg8vnTW4IqQn-80" style="edgeStyle=orthogonalEdgeStyle;rounded=0;orthogonalLoop=1;jettySize=auto;html=1;exitX=1;exitY=0.5;exitDx=0;exitDy=0;entryX=0;entryY=0.5;entryDx=0;entryDy=0;" edge="1" parent="WIyWlLk6GJQsqaUBKTNV-1" source="fILXi0ZJVg8vnTW4IqQn-2" target="fILXi0ZJVg8vnTW4IqQn-4">
          <mxGeometry relative="1" as="geometry" />
        </mxCell>
        <mxCell id="fILXi0ZJVg8vnTW4IqQn-2" value="Initialize Parameters" style="whiteSpace=wrap;strokeWidth=2;fillColor=#dae8fc;strokeColor=#6c8ebf;fontFamily=Times New Roman;fontSize=16;fontStyle=1" vertex="1" parent="WIyWlLk6GJQsqaUBKTNV-1">
          <mxGeometry x="301" y="359.5" width="142" height="49" as="geometry" />
        </mxCell>
        <mxCell id="fILXi0ZJVg8vnTW4IqQn-63" style="edgeStyle=orthogonalEdgeStyle;rounded=0;orthogonalLoop=1;jettySize=auto;html=1;exitX=1;exitY=0.5;exitDx=0;exitDy=0;entryX=0;entryY=0.5;entryDx=0;entryDy=0;" edge="1" parent="WIyWlLk6GJQsqaUBKTNV-1" source="fILXi0ZJVg8vnTW4IqQn-4" target="fILXi0ZJVg8vnTW4IqQn-5">
          <mxGeometry relative="1" as="geometry" />
        </mxCell>
        <mxCell id="fILXi0ZJVg8vnTW4IqQn-4" value="Create Multiple Decision Trees" style="whiteSpace=wrap;strokeWidth=2;fillColor=#dae8fc;strokeColor=#6c8ebf;fontFamily=Times New Roman;fontSize=16;fontStyle=1" vertex="1" parent="WIyWlLk6GJQsqaUBKTNV-1">
          <mxGeometry x="497.5" y="359.5" width="174" height="49" as="geometry" />
        </mxCell>
        <mxCell id="fILXi0ZJVg8vnTW4IqQn-81" style="edgeStyle=orthogonalEdgeStyle;rounded=0;orthogonalLoop=1;jettySize=auto;html=1;exitX=1;exitY=0.5;exitDx=0;exitDy=0;entryX=0;entryY=0.5;entryDx=0;entryDy=0;" edge="1" parent="WIyWlLk6GJQsqaUBKTNV-1" source="fILXi0ZJVg8vnTW4IqQn-5" target="fILXi0ZJVg8vnTW4IqQn-7">
          <mxGeometry relative="1" as="geometry" />
        </mxCell>
        <mxCell id="fILXi0ZJVg8vnTW4IqQn-5" value="Train Each Tree and&#xa;Make Predictions with Each Tree" style="whiteSpace=wrap;strokeWidth=2;fillColor=#dae8fc;strokeColor=#6c8ebf;fontFamily=Times New Roman;fontSize=16;fontStyle=1" vertex="1" parent="WIyWlLk6GJQsqaUBKTNV-1">
          <mxGeometry x="700" y="340" width="190" height="90" as="geometry" />
        </mxCell>
        <mxCell id="fILXi0ZJVg8vnTW4IqQn-60" style="edgeStyle=orthogonalEdgeStyle;rounded=0;orthogonalLoop=1;jettySize=auto;html=1;exitX=1;exitY=0.5;exitDx=0;exitDy=0;entryX=0;entryY=0.5;entryDx=0;entryDy=0;" edge="1" parent="WIyWlLk6GJQsqaUBKTNV-1" source="fILXi0ZJVg8vnTW4IqQn-7" target="fILXi0ZJVg8vnTW4IqQn-41">
          <mxGeometry relative="1" as="geometry" />
        </mxCell>
        <mxCell id="fILXi0ZJVg8vnTW4IqQn-7" value="Aggregate Results" style="whiteSpace=wrap;strokeWidth=2;fillColor=#dae8fc;strokeColor=#6c8ebf;fontFamily=Times New Roman;fontSize=16;fontStyle=1" vertex="1" parent="WIyWlLk6GJQsqaUBKTNV-1">
          <mxGeometry x="920" y="360.5" width="126" height="49" as="geometry" />
        </mxCell>
        <mxCell id="fILXi0ZJVg8vnTW4IqQn-67" style="edgeStyle=orthogonalEdgeStyle;rounded=0;orthogonalLoop=1;jettySize=auto;html=1;exitX=0.5;exitY=1;exitDx=0;exitDy=0;entryX=0.5;entryY=0;entryDx=0;entryDy=0;" edge="1" parent="WIyWlLk6GJQsqaUBKTNV-1" source="fILXi0ZJVg8vnTW4IqQn-10" target="fILXi0ZJVg8vnTW4IqQn-2">
          <mxGeometry relative="1" as="geometry" />
        </mxCell>
        <mxCell id="fILXi0ZJVg8vnTW4IqQn-10" value="Set maximum feature" style="whiteSpace=wrap;strokeWidth=2;fillColor=#d5e8d4;strokeColor=#82b366;fontFamily=Times New Roman;fontSize=16;fontStyle=0" vertex="1" parent="WIyWlLk6GJQsqaUBKTNV-1">
          <mxGeometry x="400" y="269" width="157" height="49" as="geometry" />
        </mxCell>
        <mxCell id="fILXi0ZJVg8vnTW4IqQn-64" style="edgeStyle=orthogonalEdgeStyle;rounded=0;orthogonalLoop=1;jettySize=auto;html=1;exitX=0.5;exitY=1;exitDx=0;exitDy=0;entryX=0.5;entryY=0;entryDx=0;entryDy=0;" edge="1" parent="WIyWlLk6GJQsqaUBKTNV-1" source="fILXi0ZJVg8vnTW4IqQn-11" target="fILXi0ZJVg8vnTW4IqQn-2">
          <mxGeometry relative="1" as="geometry" />
        </mxCell>
        <mxCell id="fILXi0ZJVg8vnTW4IqQn-11" value="SetÂ the number of trees" style="whiteSpace=wrap;strokeWidth=2;fontFamily=Times New Roman;fontSize=16;fillColor=#d5e8d4;strokeColor=#82b366;" vertex="1" parent="WIyWlLk6GJQsqaUBKTNV-1">
          <mxGeometry x="293.5" y="200" width="157" height="49" as="geometry" />
        </mxCell>
        <mxCell id="fILXi0ZJVg8vnTW4IqQn-66" style="edgeStyle=orthogonalEdgeStyle;rounded=0;orthogonalLoop=1;jettySize=auto;html=1;exitX=0.5;exitY=1;exitDx=0;exitDy=0;entryX=0.5;entryY=0;entryDx=0;entryDy=0;" edge="1" parent="WIyWlLk6GJQsqaUBKTNV-1" source="fILXi0ZJVg8vnTW4IqQn-12" target="fILXi0ZJVg8vnTW4IqQn-2">
          <mxGeometry relative="1" as="geometry" />
        </mxCell>
        <mxCell id="fILXi0ZJVg8vnTW4IqQn-12" value="Set random seed" style="whiteSpace=wrap;strokeWidth=2;fontFamily=Times New Roman;fontSize=16;fillColor=#d5e8d4;strokeColor=#82b366;fontStyle=0" vertex="1" parent="WIyWlLk6GJQsqaUBKTNV-1">
          <mxGeometry x="190" y="269" width="157" height="49" as="geometry" />
        </mxCell>
        <mxCell id="fILXi0ZJVg8vnTW4IqQn-74" style="edgeStyle=orthogonalEdgeStyle;rounded=0;orthogonalLoop=1;jettySize=auto;html=1;exitX=0.5;exitY=0;exitDx=0;exitDy=0;entryX=0.5;entryY=1;entryDx=0;entryDy=0;" edge="1" parent="WIyWlLk6GJQsqaUBKTNV-1" source="fILXi0ZJVg8vnTW4IqQn-14" target="fILXi0ZJVg8vnTW4IqQn-4">
          <mxGeometry relative="1" as="geometry" />
        </mxCell>
        <mxCell id="fILXi0ZJVg8vnTW4IqQn-14" value="Randomly select features" style="whiteSpace=wrap;strokeWidth=2;fillColor=#d5e8d4;strokeColor=#82b366;fontFamily=Times New Roman;fontSize=16;" vertex="1" parent="WIyWlLk6GJQsqaUBKTNV-1">
          <mxGeometry x="540" y="521" width="156" height="49" as="geometry" />
        </mxCell>
        <mxCell id="fILXi0ZJVg8vnTW4IqQn-82" style="edgeStyle=orthogonalEdgeStyle;rounded=0;orthogonalLoop=1;jettySize=auto;html=1;exitX=0.5;exitY=1;exitDx=0;exitDy=0;entryX=0.5;entryY=0;entryDx=0;entryDy=0;" edge="1" parent="WIyWlLk6GJQsqaUBKTNV-1" source="fILXi0ZJVg8vnTW4IqQn-16" target="fILXi0ZJVg8vnTW4IqQn-7">
          <mxGeometry relative="1" as="geometry" />
        </mxCell>
        <mxCell id="fILXi0ZJVg8vnTW4IqQn-16" value="Averaging$$\hat{y}=\frac{1}{T}\sum_{t=1}^T\hat{y}_t$$" style="whiteSpace=wrap;strokeWidth=2;fillColor=#d5e8d4;strokeColor=#82b366;fontFamily=Times New Roman;fontSize=16;" vertex="1" parent="WIyWlLk6GJQsqaUBKTNV-1">
          <mxGeometry x="918" y="200" width="130" height="100" as="geometry" />
        </mxCell>
        <mxCell id="fILXi0ZJVg8vnTW4IqQn-58" style="edgeStyle=orthogonalEdgeStyle;rounded=0;orthogonalLoop=1;jettySize=auto;html=1;exitX=1;exitY=0.5;exitDx=0;exitDy=0;entryX=0;entryY=0.5;entryDx=0;entryDy=0;" edge="1" parent="WIyWlLk6GJQsqaUBKTNV-1" source="fILXi0ZJVg8vnTW4IqQn-39" target="fILXi0ZJVg8vnTW4IqQn-2">
          <mxGeometry relative="1" as="geometry" />
        </mxCell>
        <mxCell id="fILXi0ZJVg8vnTW4IqQn-39" value="&lt;font style=&quot;font-size: 16px;&quot; face=&quot;Times New Roman&quot;&gt;Input antigen gene datasert&lt;/font&gt;" style="shape=parallelogram;perimeter=parallelogramPerimeter;whiteSpace=wrap;html=1;fixedSize=1;fillColor=#fff2cc;strokeColor=#d6b656;" vertex="1" parent="WIyWlLk6GJQsqaUBKTNV-1">
          <mxGeometry x="60" y="354" width="159.5" height="60" as="geometry" />
        </mxCell>
        <mxCell id="fILXi0ZJVg8vnTW4IqQn-41" value="&lt;font style=&quot;font-size: 16px;&quot; face=&quot;Times New Roman&quot;&gt;Output final result&lt;/font&gt;" style="shape=parallelogram;perimeter=parallelogramPerimeter;whiteSpace=wrap;html=1;fixedSize=1;fillColor=#fff2cc;strokeColor=#d6b656;" vertex="1" parent="WIyWlLk6GJQsqaUBKTNV-1">
          <mxGeometry x="1080" y="355" width="160" height="60" as="geometry" />
        </mxCell>
        <mxCell id="fILXi0ZJVg8vnTW4IqQn-69" style="edgeStyle=orthogonalEdgeStyle;rounded=0;orthogonalLoop=1;jettySize=auto;html=1;exitX=0.5;exitY=0;exitDx=0;exitDy=0;entryX=0.5;entryY=1;entryDx=0;entryDy=0;" edge="1" parent="WIyWlLk6GJQsqaUBKTNV-1" source="fILXi0ZJVg8vnTW4IqQn-45" target="fILXi0ZJVg8vnTW4IqQn-2">
          <mxGeometry relative="1" as="geometry" />
        </mxCell>
        <mxCell id="fILXi0ZJVg8vnTW4IqQn-45" value="&lt;font style=&quot;font-size: 16px;&quot; face=&quot;Times New Roman&quot;&gt;Set maximum depth&lt;/font&gt;" style="rounded=0;whiteSpace=wrap;html=1;fillColor=#d5e8d4;strokeColor=#82b366;" vertex="1" parent="WIyWlLk6GJQsqaUBKTNV-1">
          <mxGeometry x="190" y="450" width="157" height="50" as="geometry" />
        </mxCell>
        <mxCell id="fILXi0ZJVg8vnTW4IqQn-68" style="edgeStyle=orthogonalEdgeStyle;rounded=0;orthogonalLoop=1;jettySize=auto;html=1;exitX=0.5;exitY=0;exitDx=0;exitDy=0;" edge="1" parent="WIyWlLk6GJQsqaUBKTNV-1" source="fILXi0ZJVg8vnTW4IqQn-52" target="fILXi0ZJVg8vnTW4IqQn-2">
          <mxGeometry relative="1" as="geometry" />
        </mxCell>
        <mxCell id="fILXi0ZJVg8vnTW4IqQn-52" value="Set minimum sample split" style="whiteSpace=wrap;strokeWidth=2;fillColor=#d5e8d4;strokeColor=#82b366;fontFamily=Times New Roman;fontSize=16;fontStyle=0" vertex="1" parent="WIyWlLk6GJQsqaUBKTNV-1">
          <mxGeometry x="293.5" y="521" width="157" height="49" as="geometry" />
        </mxCell>
        <mxCell id="fILXi0ZJVg8vnTW4IqQn-71" style="edgeStyle=orthogonalEdgeStyle;rounded=0;orthogonalLoop=1;jettySize=auto;html=1;exitX=0.5;exitY=0;exitDx=0;exitDy=0;entryX=0.5;entryY=1;entryDx=0;entryDy=0;" edge="1" parent="WIyWlLk6GJQsqaUBKTNV-1" source="fILXi0ZJVg8vnTW4IqQn-53" target="fILXi0ZJVg8vnTW4IqQn-2">
          <mxGeometry relative="1" as="geometry" />
        </mxCell>
        <mxCell id="fILXi0ZJVg8vnTW4IqQn-53" value="Set minimum sample leaf node number" style="whiteSpace=wrap;strokeWidth=2;fillColor=#d5e8d4;strokeColor=#82b366;fontFamily=Times New Roman;fontSize=16;fontStyle=0" vertex="1" parent="WIyWlLk6GJQsqaUBKTNV-1">
          <mxGeometry x="400" y="450" width="157" height="49" as="geometry" />
        </mxCell>
        <mxCell id="fILXi0ZJVg8vnTW4IqQn-73" style="edgeStyle=orthogonalEdgeStyle;rounded=0;orthogonalLoop=1;jettySize=auto;html=1;exitX=0.5;exitY=1;exitDx=0;exitDy=0;entryX=0.5;entryY=0;entryDx=0;entryDy=0;" edge="1" parent="WIyWlLk6GJQsqaUBKTNV-1" source="fILXi0ZJVg8vnTW4IqQn-13" target="fILXi0ZJVg8vnTW4IqQn-4">
          <mxGeometry relative="1" as="geometry" />
        </mxCell>
        <mxCell id="fILXi0ZJVg8vnTW4IqQn-13" value="Randomly select samples" style="whiteSpace=wrap;strokeWidth=2;fillColor=#d5e8d4;strokeColor=#82b366;fontFamily=Times New Roman;fontSize=16;" vertex="1" parent="WIyWlLk6GJQsqaUBKTNV-1">
          <mxGeometry x="540" y="200" width="156" height="49" as="geometry" />
        </mxCell>
        <mxCell id="fILXi0ZJVg8vnTW4IqQn-83" value="$${T}$$" style="whiteSpace=wrap;strokeWidth=2;fontFamily=Times New Roman;fontSize=16;strokeColor=none;" vertex="1" parent="WIyWlLk6GJQsqaUBKTNV-1">
          <mxGeometry x="882" y="436" width="16" height="23" as="geometry" />
        </mxCell>
        <mxCell id="fILXi0ZJVg8vnTW4IqQn-85" value="&lt;span style=&quot;font-family: &amp;quot;Times New Roman&amp;quot;; font-size: 16px;&quot;&gt;&amp;nbsp;is the total number of decision trees&lt;/span&gt;" style="rounded=0;whiteSpace=wrap;html=1;strokeColor=none;" vertex="1" parent="WIyWlLk6GJQsqaUBKTNV-1">
          <mxGeometry x="897" y="437.5" width="240" height="21" as="geometry" />
        </mxCell>
        <mxCell id="fILXi0ZJVg8vnTW4IqQn-87" value="&lt;font style=&quot;font-size: 16px;&quot; face=&quot;Times New Roman&quot;&gt;$$\hat{y}_t$$&lt;/font&gt;" style="rounded=0;whiteSpace=wrap;html=1;strokeColor=none;" vertex="1" parent="WIyWlLk6GJQsqaUBKTNV-1">
          <mxGeometry x="879" y="469" width="20" height="21" as="geometry" />
        </mxCell>
        <mxCell id="fILXi0ZJVg8vnTW4IqQn-88" value="&lt;font style=&quot;font-size: 16px;&quot; face=&quot;Times New Roman&quot;&gt;is the prediction of the tth decision tree&lt;/font&gt;" style="rounded=0;whiteSpace=wrap;html=1;strokeColor=none;" vertex="1" parent="WIyWlLk6GJQsqaUBKTNV-1">
          <mxGeometry x="901" y="472" width="260" height="20" as="geometry" />
        </mxCell>
      </root>
    </mxGraphModel>
  </diagram>
</mxfile>
